<svg xmlns="http://www.w3.org/2000/svg" viewBox="0 0 187.5 187.5"><rect width="100%" height="100%" fill="#111111"/><path transform="translate(35.16,128.06) scale(0.10000,-0.10000)" fill="#C7A163" d="M278.7639615088701 -12Q230.59910555183887 -12 188.07653630524874 -2.7510774917900562Q145.5539670586586 6.4978450164198875 113.82441183924675 29.31433344259858Q82.0948566198349 52.130821868777275 63.91786842793226 91.03480618819594Q45.740880236029625 129.9387905076146 45.740880236029625 189.7040995657444Q45.740880236029625 194.7752202823758 45.77644059434533 198.75388011708856Q45.81200095266104 202.7325399518013 46.267186388373375 208.0269755423069H107.86289828270674Q107.4077128469944 203.24033769220114 107.14455977082253 197.0668137446046Q106.88140669465065 190.89328979700804 106.88140669465065 185.5092250779271Q106.88140669465065 136.1748429760337 126.9068623483181 104.27650540694594Q146.93231800198555 72.3781678378582 184.66115655750036 57.23874977976084Q222.38999511301517 42.099331721663475 274.2334359437227 42.099331721663475Q293.7640763744712 42.099331721663475 316.86145497113466 45.771479383111Q339.95883356779814 49.443627044558525 362.6031015329063 58.61436351761222Q385.24736949801445 67.78509999066591 403.7913439385593 83.26522466912866Q422.33531837910414 98.7453493475914 433.5927012450993 122.54339339211583Q444.8500841110945 146.34143743664026 444.8500841110945 180.069746427238Q444.8500841110945 217.2902369275689 428.6182947270572 242.39907098934054Q412.38650534301996 267.5079050511122 384.92147010937333 283.9993832670152Q357.4564348757267 300.49086148291826 323.22614823281765 312.9574447348714Q288.9958615899086 325.4240279868245 252.3103895112872 336.66087491065264Q215.62491743266582 347.89772183448076 181.39463078975677 361.8408213108778Q147.16434414684772 375.78392078727484 119.6993089132011 396.2270202636719Q92.23427367955446 416.6701197400689 76.0024842955172 447.20139187946916Q59.77069491147995 477.7326640188694 59.77069491147995 521.9915288761258Q59.77069491147995 563.1466172114015 73.68246659636497 595.9559970386326Q87.59423828125 628.7653768658638 115.25416415184736 651.4460114091635Q142.91409002244473 674.1266459524632 184.14218877628446 686.0953285358846Q225.3702875301242 698.0640111193061 279.59325893968344 698.0640111193061Q326.18630603700876 698.0640111193061 364.73594975844026 687.2973032444715Q403.28559347987175 676.530595369637 431.532968968153 654.1252008602023Q459.78034445643425 631.7198063507676 475.26105734705925 596.477993439883Q490.74177023768425 561.2361805289984 490.74177023768425 511.4211022928357V498.8450022190809H429.8715074509382V518.3329360112548Q429.8715074509382 557.7298623919487 412.11983536556363 585.7277714386582Q394.36816328018904 613.7256804853678 361.807837408036 628.8451799415052Q329.24751153588295 643.9646793976426 284.06550669670105 643.9646793976426Q231.78990622609854 643.9646793976426 195.76162081584334 631.0585873685777Q159.73333540558815 618.1524953395128 140.94674582779408 592.7029556557536Q122.16015625 567.2534159719944 122.16015625 529.3954802900553Q122.16015625 493.71551513671875 138.39194563403726 469.8413833901286Q154.6237350180745 445.9672516435385 182.3163629695773 430.20692094415426Q210.0089909210801 414.44659024477005 244.23927756398916 402.4480014331639Q278.4695642068982 390.4494126215577 314.92744356766343 379.2090108990669Q351.38532292842865 367.96860917657614 385.6156095713377 353.62863597646356Q419.84589621424675 339.288662776351 447.53852416574955 318.1499761417508Q475.23115211725235 297.01128950715065 491.4629415012896 265.2090212740004Q507.69473088532686 233.40675304085016 507.69473088532686 187.48927257210016Q507.69473088532686 116.41670576483011 478.3648368641734 72.45299854502082Q449.03494284301996 28.489291325211525 397.4291772954166 8.244645662605762Q345.8234117478132 -12 278.7639615088701 -12Z"/><path transform="translate(92.16,128.06) scale(0.10000,-0.10000)" fill="#C7A163" d="M316.20916748046875 -12Q257.52520751953125 -12 206.68331909179688 -2.210540771484375Q155.8414306640625 7.57891845703125 117.15737915039062 32.13153076171875Q78.47332763671875 56.68414306640625 56.473419189453125 100.52621459960938Q34.4735107421875 144.3682861328125 34.4735107421875 212.4208984375Q34.4735107421875 214.4208984375 34.4735107421875 219.815673828125Q34.4735107421875 225.21044921875 35.4735107421875 229.21044921875H227.89422607421875Q227.367919921875 224.73675537109375 227.367919921875 220.28936767578125Q227.367919921875 215.84197998046875 227.367919921875 211.89459228515625Q227.367919921875 183.78936767578125 237.10467529296875 169.21044921875Q246.8414306640625 154.63153076171875 264.0517883300781 149.605224609375Q281.26214599609375 144.57891845703125 302.84088134765625 144.57891845703125Q312.472412109375 144.57891845703125 321.9460144042969 145.78945922851562Q331.41961669921875 147 339.8932189941406 150.21054077148438Q348.3668212890625 153.42108154296875 355.0772705078125 158.894775390625Q361.7877197265625 164.36846923828125 365.41925048828125 172.63162231445312Q369.05078125 180.894775390625 369.05078125 192Q369.05078125 211 355.36663818359375 222.9473876953125Q341.6824951171875 234.894775390625 318.6036682128906 243.8421630859375Q295.52484130859375 252.78955078125 266.6302490234375 260.9737854003906Q237.73565673828125 269.15802001953125 206.55160522460938 279.3685607910156Q175.3675537109375 289.5791015625 146.47296142578125 304.8159484863281Q117.578369140625 320.05279541015625 94.49954223632812 343.3159484863281Q71.42071533203125 366.5791015625 57.736572265625 400.4211730957031Q44.05242919921875 434.26324462890625 44.05242919921875 481.42108154296875Q44.05242919921875 541.4210815429688 65.26287841796875 583.1842346191406Q86.47332763671875 624.9473876953125 123.57846069335938 650.7105407714844Q160.68359375 676.4736938476562 207.6571044921875 688.4736938476562Q254.630615234375 700.4736938476562 306.15673828125 700.4736938476562Q358.20916748046875 700.4736938476562 403.9458312988281 689.1579284667969Q449.6824951171875 677.8421630859375 484.57708740234375 653.7369384765625Q519.4716796875 629.6317138671875 539.4452819824219 591.0527954101562Q559.4188842773438 552.473876953125 559.9451904296875 497.94757080078125V477.894775390625H369.52447509765625V485.684326171875Q369.52447509765625 503.21063232421875 364.0771789550781 517.0790100097656Q358.6298828125 530.9473876953125 345.9984436035156 539.0526123046875Q333.36700439453125 547.1578369140625 310.84088134765625 547.1578369140625Q290.31475830078125 547.1578369140625 276.6833190917969 541.6315307617188Q263.0518798828125 536.105224609375 256.8414306640625 526.5526123046875Q250.6309814453125 517 250.6309814453125 505Q250.6309814453125 485.0526123046875 264.31512451171875 471.63153076171875Q277.999267578125 458.21044921875 301.31494140625 449.0262145996094Q324.630615234375 439.84197998046875 353.52520751953125 431.6577453613281Q382.4197998046875 423.4735107421875 413.36700439453125 413.7892761230469Q444.314208984375 404.10504150390625 473.20880126953125 389.63134765625Q502.1033935546875 375.15765380859375 525.4190673828125 352.8945007324219Q548.7347412109375 330.63134765625 562.4188842773438 298.5787353515625Q576.10302734375 266.526123046875 576.10302734375 220.89459228515625Q576.10302734375 140.63153076171875 543.2347412109375 89.0526123046875Q510.366455078125 37.47369384765625 452.0508728027344 12.736846923828125Q393.73529052734375 -12 316.20916748046875 -12Z"/></svg>